# xmcd
#
# Track frame offsets:
# 150
# 11409
# 24090
# 40002
# 65643
# 79185
# 87220
# 96778
# 105984
# 131086
# 143551
# 162724
# 180306
# 192750
# 204456
#
# Disc length: 2853 seconds
#
#
# Revision: 4
# Processed by: cddbd v1.5.2PL0 Copyright (c) Steve Scherf et al.
# Submitted via: FreeRIP 2.96 
#
DISCID=b60b230f
DTITLE=Various Artist - Mojo Mag 2007.09: Stoned
DYEAR=2007
DGENRE=Rock
TTITLE0=Ain't Too Proud to Beg [The Temptations, single A-side, released 1966, from 'Gettin' Ready', June 1966]
TTITLE1=Time Is on My Side [Irma Thomas, single B-side to 'Anyone Who Knows What Love Is (Will Understand)', released 1964]
TTITLE2=Think [Chris Farlowe (Rolling Stones cover 1966), single A-side, released January 1966]
TTITLE3=Let's Spend the Night Together [Joe Simon (Rolling Stones cover 1967], from 'Today', 1976]
TTITLE4=Cherry Oh Baby [Eric Donaldson, from 'Eric Donaldson', 1971]
TTITLE5=Come On [Chuck Berry, single A-side, released October 1961]
TTITLE6=Fortune Teller [Benny Spellman, single B-side to 'Lipstick Traces (On a Cigarette)', released 1962]
TTITLE7=Crackin' Up [Bo Diddley, from 'Go Bo Diddley', July 1959]
TTITLE8=Sympathy for the Devil [Sandie Shaw (Rolling Stones cover 1968), from 'Reviewing the Situation', 1969]
TTITLE9=As Tears Go By [Nancy Sinatra (Marianne Faithfull cover 1964/Rolling Stones cover 1965), from 'Boots', March 1966]
TTITLE10=Angie [Stereophonics (Rolling Stones cover 1973), single B-side to 'Hurry Up and Wait', November 1999]
TTITLE11=Moonlight Mile [Turin Brakes (Rolling Stones cover 1971), from 'Late Night Tales: Turin Brakes', February 2004]
TTITLE12=She Smiled Sweetly [Billy Bragg (Rolling Stones cover 1967), on 'Volume 2' box set, October 2006]
TTITLE13=Honest I Do [Jimmy Reed, single A-side, 1957, on 'The Essential Boss Man', January 2005]
TTITLE14=You Can Make It If You Try [Gene Allison, single A-side, 1957, and from 'Gene Allison', 1959]
EXTD=
EXTT0=
EXTT1=
EXTT2=
EXTT3=
EXTT4=
EXTT5=
EXTT6=
EXTT7=
EXTT8=
EXTT9=
EXTT10=
EXTT11=
EXTT12=
EXTT13=
EXTT14=
PLAYORDER=
